# xmcd
#
# Track frame offsets:
#	150
#	12897
#	24806
#	36881
#	46664
#	57613
#	67131
#	79319
#	112679
#	130239
#	145185
#	155485
#	172028
#	184759
#	197274
#	212638
#	224506
#	235592
#	251362
#	262595
#	278607
#	291610
#	305588
#	316512
#
# Disc length: 4400 seconds
#
# Revision: 0
# Processed by: cddbd v1.5.1PL2 Copyright (c) Steve Scherf et al.
# Submitted via: dBpowerAMP V4.0
#
DISCID=4b112e18
DTITLE=Them - the collection feat. van morrison
DYEAR=1968
DGENRE=Blues
TTITLE0=baby please don't go
TTITLE1=bright lights big city
TTITLE2=i put a spell on you
TTITLE3=hello josephine
TTITLE4=turn on your love light
TTITLE5=don't start crying now
TTITLE6=gloria
TTITLE7=the story of them
TTITLE8=it's all over now baby blue
TTITLE9=i got a woman
TTITLE10=my little baby
TTITLE11=how long baby
TTITLE12=here comes the night
TTITLE13=stormy monday
TTITLE14=i like it like that
TTITLE15=go on home baby
TTITLE16=out of sight
TTITLE17=baby what you want me to do
TTITLE18=route 66
TTITLE19=friday' child
TTITLE20=little girl
TTITLE21=hey girl
TTITLE22=call my name
TTITLE23=mystic eyes
EXTD=
EXTT0=
EXTT1=
EXTT2=
EXTT3=
EXTT4=
EXTT5=
EXTT6=
EXTT7=
EXTT8=
EXTT9=
EXTT10=
EXTT11=
EXTT12=
EXTT13=
EXTT14=
EXTT15=
EXTT16=
EXTT17=
EXTT18=
EXTT19=
EXTT20=
EXTT21=
EXTT22=
EXTT23=
PLAYORDER=
